<?xml version="1.0" encoding="utf-8"?>
<!-- Generator: Adobe Illustrator 22.0.1, SVG Export Plug-In . SVG Version: 6.00 Build 0)  -->
<svg version="1.1" id="Layer_1" xmlns="http://www.w3.org/2000/svg" xmlns:xlink="http://www.w3.org/1999/xlink" x="0px" y="0px"
	 viewBox="0 0 506.2 555.8" style="enable-background:new 0 0 506.2 555.8;" xml:space="preserve">
<style type="text/css">
	.st0{fill:#FFFFFF;}
	.st1{fill:#1F65D9;}
</style>
<g>
	<polygon class="st0" points="396.7,305.9 396.7,361.9 396.6,361.9 348.8,389.9 301,417.9 277.1,431.9 253.1,445.9 229.2,431.9 
		205.3,417.9 157.5,389.9 109.6,361.9 109.6,305.9 157.5,278 157.5,333.9 205.3,361.9 229.2,375.9 253.1,389.9 277.1,375.9 
		301,361.9 348.8,333.9 348.8,277.9 396.6,305.9 	"/>
	<polygon class="st0" points="396.7,193.9 396.7,249.9 396.6,249.9 348.8,221.9 301,193.9 277.1,179.9 277.1,319.9 253.1,333.9 
		229.2,319.9 229.2,180 205.3,193.9 157.5,221.9 157.5,222 109.6,249.9 109.6,193.9 157.5,166 157.5,166 205.3,138 229.2,124 
		253.1,110 277.1,124 301,138 348.8,166 396.6,193.9 	"/>
</g>
</svg>
