<?xml version="1.0" encoding="utf-8"?>
<!-- Generator: Adobe Illustrator 22.0.1, SVG Export Plug-In . SVG Version: 6.00 Build 0)  -->
<svg version="1.1" xmlns="http://www.w3.org/2000/svg" xmlns:xlink="http://www.w3.org/1999/xlink" x="0px" y="0px"
	 viewBox="0 0 109.3 110.1" enable-background="new 0 0 109.3 110.1" xml:space="preserve">
<g id="Layer_2" display="none">
	<rect x="-685.8" y="-508.5" display="inline" fill="#233148" width="1139.2" height="843.8"/>
</g>
<g id="Layer_1">
	<g id="icon_04">
		<path fill="none" stroke="#1F65D9" stroke-width="6" stroke-miterlimit="10" d="M82.2,67.8c-8.2,15.8-27.7,21.9-43.5,13.7
			c-5.2-2.7-9.4-6.7-12.3-11.3"/>
		<line fill="none" stroke="#1F65D9" stroke-width="6" stroke-miterlimit="10" x1="37.7" y1="37.4" x2="37.7" y2="44"/>
		<line fill="none" stroke="#1F65D9" stroke-width="6" stroke-miterlimit="10" x1="67.6" y1="37.4" x2="67.6" y2="44"/>
		<path fill="none" stroke="#1F65D9" stroke-width="6" stroke-miterlimit="10" d="M19,93.3c-4.5-4.1-8.2-9-11-14.4"/>
		<path fill="none" stroke="#1F65D9" stroke-width="6" stroke-miterlimit="10" d="M106.3,56.2c-0.6,28.2-23.7,50.9-52,50.9
			c-7.4,0-14.5-1.6-20.9-4.4"/>
		<path fill="none" stroke="#1F65D9" stroke-width="6" stroke-miterlimit="10" d="M92.2,19.4c1.6,1.7,3.1,3.5,4.4,5.4"/>
		<path fill="none" stroke="#1F65D9" stroke-width="6" stroke-miterlimit="10" d="M74.5,7.1c2.7,1.1,5.2,2.5,7.6,4"/>
		<path fill="none" stroke="#1F65D9" stroke-width="6" stroke-miterlimit="10" d="M3,46.3C7.1,21.7,28.5,3,54.3,3
			c4.6,0,9.1,0.6,13.3,1.7"/>
	</g>
</g>
</svg>
