<?xml version="1.0" encoding="utf-8"?>
<!-- Generator: Adobe Illustrator 22.0.1, SVG Export Plug-In . SVG Version: 6.00 Build 0)  -->
<svg version="1.1" xmlns="http://www.w3.org/2000/svg" xmlns:xlink="http://www.w3.org/1999/xlink" x="0px" y="0px"
	 viewBox="0 0 109.6 107" enable-background="new 0 0 109.6 107" xml:space="preserve">
<g id="Layer_2" display="none">
	<rect x="-330.1" y="-508.5" display="inline" fill="#233148" width="1139.2" height="843.8"/>
</g>
<g id="Layer_1">
	<g id="icon_03">
		<path fill="none" stroke="#1F65D9" stroke-width="6" stroke-miterlimit="10" d="M30.3,61.3c-4.9-13.4,2-28.3,15.5-33.3
			c4.4-1.6,9-2,13.4-1.2"/>
		<path fill="none" stroke="#1F65D9" stroke-width="6" stroke-miterlimit="10" d="M44.2,76.1c-1.7-0.7-3.2-1.6-4.7-2.7"/>
		<path fill="none" stroke="#1F65D9" stroke-width="6" stroke-miterlimit="10" d="M79,43.5c4.9,13.4-2,28.3-15.5,33.3
			c-4.4,1.6-9,2-13.4,1.2"/>
		<path fill="none" stroke="#1F65D9" stroke-width="6" stroke-miterlimit="10" d="M65.1,28.7c1.7,0.7,3.2,1.6,4.7,2.7"/>
		<polygon fill="none" stroke="#1F65D9" stroke-width="6" stroke-miterlimit="10" points="88,12.4 36.7,3.3 3.4,43.3 21.4,92.4 
			72.6,101.6 105.9,61.5 		"/>
		<line fill="none" stroke="#1F65D9" stroke-width="6" stroke-miterlimit="10" x1="73.2" y1="70.5" x2="107.5" y2="104.9"/>
	</g>
</g>
</svg>
