<svg width="238" height="278" viewBox="0 0 238 278" fill="none" xmlns="http://www.w3.org/2000/svg">
<path d="M169.533 0H36.2839V122.25H54.2173V17.931H151.6V86.3885H220.136V260.138H151.6V278H238V68.527V68.4575V68.527L169.533 0ZM169.464 68.4575V25.298L212.699 68.4575H169.464ZM0 139V278H133.666V139H0ZM115.733 255.204L82.5771 222.052L59.5 245.127L45.5286 231.157L17.7944 258.887V156.931H115.664V255.204H115.733ZM99.3289 196.615C99.3289 201.897 95.0193 206.207 89.7366 206.207C84.4539 206.207 80.1443 201.897 80.1443 196.615C80.1443 191.333 84.4539 187.025 89.7366 187.025C95.0193 187.094 99.3289 191.333 99.3289 196.615Z" fill="white"/>
</svg>
